<svg xmlns="http://www.w3.org/2000/svg" width="1em" height="1em" fill="none" viewBox="0 0 139 34" class="w-25 h-6"><path fill="currentColor" d="M55.445 13.839c0 3.213-2.465 5.767-5.665 5.767h-2.916v5.643h-3.272V8.071h6.188c3.2 0 5.665 2.551 5.665 5.768m-3.247 0c0-1.498-1.02-2.603-2.418-2.603h-2.916v5.202h2.916c1.397 0 2.418-1.13 2.418-2.602zM71.12 8.071v17.178h-3.248v-7.115H61.71v7.115h-3.272V8.071h3.272v6.82h6.163v-6.82zM84.87 22.157h-6.614l-.996 3.092h-3.532l5.808-17.178h4.054l5.832 17.178h-3.556zm-1.017-3.165-2.276-7.02-2.276 7.02zM97.794 19.286h-2.49v5.963h-3.27V8.071h6.638c3.059 0 5.523 2.551 5.523 5.694 0 2.16-1.304 4.097-3.2 5.006l3.674 6.478h-3.532zm-2.49-2.97h3.368c1.234 0 2.252-1.13 2.252-2.551s-1.02-2.529-2.252-2.529h-3.367zM106.75 16.661c0-5.031 3.816-8.933 8.606-8.933s8.631 3.902 8.631 8.933c0 5.032-3.841 8.933-8.631 8.933s-8.606-3.927-8.606-8.933m13.965 0c0-3.313-2.347-5.643-5.359-5.643s-5.359 2.33-5.359 5.643 2.347 5.62 5.359 5.62 5.359-2.33 5.359-5.62M126.211 21.347l2.798-1.693c.594 1.594 1.754 2.625 3.816 2.625 2.063 0 2.657-.858 2.657-1.815 0-1.277-1.114-1.767-3.581-2.503-2.536-.762-5.003-1.866-5.003-5.128s2.607-5.105 5.451-5.105c2.845 0 4.812 1.447 5.928 3.854l-2.749 1.645c-.593-1.3-1.493-2.209-3.176-2.209-1.376 0-2.18.736-2.18 1.719 0 1.056.64 1.62 3.154 2.404 2.632.858 5.43 1.767 5.43 5.275 0 3.213-2.489 5.178-6.021 5.178s-5.619-1.693-6.519-4.244z"></path><g clip-path="url(#logo_svg__a)"><path fill="#0007B9" d="M16.001 33.124c8.838 0 16.002-7.415 16.002-16.562S24.839 0 16 0 0 7.415 0 16.562s7.164 16.562 16.001 16.562"></path><path fill="url(#logo_svg__b)" d="m21.413 11.006-5.925-2.779-4.031.97v.28l5.085 2.794z"></path><path fill="url(#logo_svg__c)" d="m23.2 19.924-7.322-3.487-5.944 1.66v.406l6.254 3.563L23.2 19.93z"></path><path fill="#fff" d="m11.457 9.477 4.03-.971 4.503-1.083v-2.82l-8.533 1.945zM21.413 11.006l-4.87 1.265-6.61 1.716v4.51l5.945-1.66 5.535-1.545zM2.928 26.105c1.42 2.08 3.289 3.81 5.466 5.03l14.807-4.974V19.93l-7.015 2.138z"></path></g><defs><linearGradient id="logo_svg__b" x1="11.457" x2="21.413" y1="10.25" y2="10.25" gradientUnits="userSpaceOnUse"><stop offset="0.17" stop-color="#fff"></stop><stop offset="0.84" stop-color="#fff" stop-opacity="0"></stop></linearGradient><linearGradient id="logo_svg__c" x1="9.934" x2="23.2" y1="19.25" y2="19.25" gradientUnits="userSpaceOnUse"><stop offset="0.17" stop-color="#fff"></stop><stop offset="0.84" stop-color="#fff" stop-opacity="0"></stop></linearGradient><clipPath id="logo_svg__a"><path fill="#fff" d="M0 0h32v33.121H0z"></path></clipPath></defs></svg>